<svg width="113" height="46" viewBox="0 0 113 46" fill="none" xmlns="http://www.w3.org/2000/svg">
<rect width="113" height="46" fill="#2A9D8F"/>
<path d="M23.104 29L20.448 24.44H18.688V29H17.232V17.848H20.832C21.6747 17.848 22.384 17.992 22.96 18.28C23.5467 18.568 23.984 18.9573 24.272 19.448C24.56 19.9387 24.704 20.4987 24.704 21.128C24.704 21.896 24.48 22.5733 24.032 23.16C23.5947 23.7467 22.9333 24.136 22.048 24.328L24.848 29H23.104ZM18.688 23.272H20.832C21.6213 23.272 22.2133 23.08 22.608 22.696C23.0027 22.3013 23.2 21.7787 23.2 21.128C23.2 20.4667 23.0027 19.9547 22.608 19.592C22.224 19.2293 21.632 19.048 20.832 19.048H18.688V23.272ZM34.9664 24.28C34.9664 24.5573 34.9504 24.8507 34.9184 25.16H27.9104C27.9637 26.024 28.257 26.7013 28.7904 27.192C29.3344 27.672 29.9904 27.912 30.7584 27.912C31.3877 27.912 31.9104 27.768 32.3264 27.48C32.753 27.1813 33.0517 26.7867 33.2224 26.296H34.7904C34.5557 27.1387 34.0864 27.8267 33.3824 28.36C32.6784 28.8827 31.8037 29.144 30.7584 29.144C29.9264 29.144 29.1797 28.9573 28.5184 28.584C27.8677 28.2107 27.3557 27.6827 26.9824 27C26.609 26.3067 26.4224 25.5067 26.4224 24.6C26.4224 23.6933 26.6037 22.8987 26.9664 22.216C27.329 21.5333 27.8357 21.0107 28.4864 20.648C29.1477 20.2747 29.905 20.088 30.7584 20.088C31.5904 20.088 32.3264 20.2693 32.9664 20.632C33.6064 20.9947 34.097 21.496 34.4384 22.136C34.7904 22.7653 34.9664 23.48 34.9664 24.28ZM33.4624 23.976C33.4624 23.4213 33.3397 22.9467 33.0944 22.552C32.849 22.1467 32.513 21.8427 32.0864 21.64C31.6704 21.4267 31.2064 21.32 30.6944 21.32C29.9584 21.32 29.329 21.5547 28.8064 22.024C28.2944 22.4933 28.001 23.144 27.9264 23.976H33.4624ZM36.3443 24.584C36.3443 23.688 36.5256 22.904 36.8883 22.232C37.2509 21.5493 37.7469 21.0213 38.3763 20.648C39.0163 20.2747 39.7256 20.088 40.5043 20.088C41.2723 20.088 41.9389 20.2533 42.5043 20.584C43.0696 20.9147 43.4909 21.3307 43.7683 21.832V20.232H45.2403V29H43.7683V27.368C43.4803 27.88 43.0483 28.3067 42.4723 28.648C41.9069 28.9787 41.2456 29.144 40.4883 29.144C39.7096 29.144 39.0056 28.952 38.3763 28.568C37.7469 28.184 37.2509 27.6453 36.8883 26.952C36.5256 26.2587 36.3443 25.4693 36.3443 24.584ZM43.7683 24.6C43.7683 23.9387 43.6349 23.3627 43.3683 22.872C43.1016 22.3813 42.7389 22.008 42.2803 21.752C41.8323 21.4853 41.3363 21.352 40.7923 21.352C40.2483 21.352 39.7523 21.48 39.3043 21.736C38.8563 21.992 38.4989 22.3653 38.2323 22.856C37.9656 23.3467 37.8323 23.9227 37.8323 24.584C37.8323 25.256 37.9656 25.8427 38.2323 26.344C38.4989 26.8347 38.8563 27.2133 39.3043 27.48C39.7523 27.736 40.2483 27.864 40.7923 27.864C41.3363 27.864 41.8323 27.736 42.2803 27.48C42.7389 27.2133 43.1016 26.8347 43.3683 26.344C43.6349 25.8427 43.7683 25.2613 43.7683 24.6ZM47.1568 24.584C47.1568 23.688 47.3381 22.904 47.7008 22.232C48.0634 21.5493 48.5594 21.0213 49.1888 20.648C49.8288 20.2747 50.5434 20.088 51.3328 20.088C52.0154 20.088 52.6501 20.248 53.2368 20.568C53.8234 20.8773 54.2714 21.288 54.5808 21.8V17.16H56.0528V29H54.5808V27.352C54.2928 27.8747 53.8661 28.3067 53.3008 28.648C52.7354 28.9787 52.0741 29.144 51.3168 29.144C50.5381 29.144 49.8288 28.952 49.1888 28.568C48.5594 28.184 48.0634 27.6453 47.7008 26.952C47.3381 26.2587 47.1568 25.4693 47.1568 24.584ZM54.5808 24.6C54.5808 23.9387 54.4474 23.3627 54.1808 22.872C53.9141 22.3813 53.5514 22.008 53.0928 21.752C52.6448 21.4853 52.1488 21.352 51.6048 21.352C51.0608 21.352 50.5648 21.48 50.1168 21.736C49.6688 21.992 49.3114 22.3653 49.0448 22.856C48.7781 23.3467 48.6448 23.9227 48.6448 24.584C48.6448 25.256 48.7781 25.8427 49.0448 26.344C49.3114 26.8347 49.6688 27.2133 50.1168 27.48C50.5648 27.736 51.0608 27.864 51.6048 27.864C52.1488 27.864 52.6448 27.736 53.0928 27.48C53.5514 27.2133 53.9141 26.8347 54.1808 26.344C54.4474 25.8427 54.5808 25.2613 54.5808 24.6ZM74.0909 17.928V29H72.6349V20.744L68.9549 29H67.9309L64.2349 20.728V29H62.7789V17.928H64.3469L68.4429 27.08L72.5389 17.928H74.0909ZM80.3841 29.144C79.5628 29.144 78.8161 28.9573 78.1441 28.584C77.4828 28.2107 76.9601 27.6827 76.5761 27C76.2028 26.3067 76.0161 25.5067 76.0161 24.6C76.0161 23.704 76.2081 22.9147 76.5921 22.232C76.9868 21.5387 77.5201 21.0107 78.1921 20.648C78.8641 20.2747 79.6161 20.088 80.4481 20.088C81.2801 20.088 82.0321 20.2747 82.7041 20.648C83.3761 21.0107 83.9041 21.5333 84.2881 22.216C84.6828 22.8987 84.8801 23.6933 84.8801 24.6C84.8801 25.5067 84.6775 26.3067 84.2721 27C83.8775 27.6827 83.3388 28.2107 82.6561 28.584C81.9735 28.9573 81.2161 29.144 80.3841 29.144ZM80.3841 27.864C80.9068 27.864 81.3975 27.7413 81.8561 27.496C82.3148 27.2507 82.6828 26.8827 82.9601 26.392C83.2481 25.9013 83.3921 25.304 83.3921 24.6C83.3921 23.896 83.2535 23.2987 82.9761 22.808C82.6988 22.3173 82.3361 21.9547 81.8881 21.72C81.4401 21.4747 80.9548 21.352 80.4321 21.352C79.8988 21.352 79.4081 21.4747 78.9601 21.72C78.5228 21.9547 78.1708 22.3173 77.9041 22.808C77.6375 23.2987 77.5041 23.896 77.5041 24.6C77.5041 25.3147 77.6321 25.9173 77.8881 26.408C78.1548 26.8987 78.5068 27.2667 78.9441 27.512C79.3815 27.7467 79.8615 27.864 80.3841 27.864ZM88.2505 21.656C88.5065 21.1547 88.8692 20.7653 89.3385 20.488C89.8185 20.2107 90.3998 20.072 91.0825 20.072V21.576H90.6985C89.0665 21.576 88.2505 22.4613 88.2505 24.232V29H86.7945V20.232H88.2505V21.656ZM100.763 24.28C100.763 24.5573 100.747 24.8507 100.715 25.16H93.7073C93.7606 26.024 94.0539 26.7013 94.5873 27.192C95.1313 27.672 95.7873 27.912 96.5553 27.912C97.1846 27.912 97.7073 27.768 98.1233 27.48C98.5499 27.1813 98.8486 26.7867 99.0193 26.296H100.587C100.353 27.1387 99.8833 27.8267 99.1793 28.36C98.4753 28.8827 97.6006 29.144 96.5553 29.144C95.7233 29.144 94.9766 28.9573 94.3153 28.584C93.6646 28.2107 93.1526 27.6827 92.7793 27C92.4059 26.3067 92.2193 25.5067 92.2193 24.6C92.2193 23.6933 92.4006 22.8987 92.7633 22.216C93.1259 21.5333 93.6326 21.0107 94.2833 20.648C94.9446 20.2747 95.7019 20.088 96.5553 20.088C97.3873 20.088 98.1233 20.2693 98.7633 20.632C99.4033 20.9947 99.8939 21.496 100.235 22.136C100.587 22.7653 100.763 23.48 100.763 24.28ZM99.2593 23.976C99.2593 23.4213 99.1366 22.9467 98.8913 22.552C98.6459 22.1467 98.3099 21.8427 97.8833 21.64C97.4673 21.4267 97.0033 21.32 96.4913 21.32C95.7553 21.32 95.1259 21.5547 94.6033 22.024C94.0913 22.4933 93.7979 23.144 93.7233 23.976H99.2593Z" fill="white"/>
</svg>
